<svg width="416" height="416" viewBox="0 0 416 416" fill="none" xmlns="http://www.w3.org/2000/svg">
<path d="M208 112C216.837 112 224 119.163 224 128V192H288C296.837 192 304 199.163 304 208C304 216.837 296.837 224 288 224H224V288C224 296.837 216.837 304 208 304C199.163 304 192 296.837 192 288V224H128C119.163 224 112 216.837 112 208C112 199.163 119.163 192 128 192H192V128C192 119.163 199.163 112 208 112Z" fill="#5DB2B2"/>
<path fill-rule="evenodd" clip-rule="evenodd" d="M0 208C0 93.1634 93.1634 0 208 0C322.837 0 416 93.1634 416 208C416 322.837 322.837 416 208 416C93.1634 416 0 322.837 0 208ZM208 32C110.837 32 32 110.837 32 208C32 305.163 110.837 384 208 384C305.163 384 384 305.163 384 208C384 110.837 305.163 32 208 32Z" fill="#5DB2B2"/>
</svg>
