<svg width="480" height="480" viewBox="0 0 480 480" fill="none" xmlns="http://www.w3.org/2000/svg">
<path d="M32 480H464C468.243 480 472.313 478.314 475.314 475.314C478.314 472.313 480 468.243 480 464C480 459.757 478.314 455.687 475.314 452.686C472.313 449.686 468.243 448 464 448H32V16C32 11.7565 30.3143 7.68687 27.3137 4.68629C24.3131 1.68571 20.2435 0 16 0C11.7565 0 7.68687 1.68571 4.68629 4.68629C1.68571 7.68687 0 11.7565 0 16V448C0 456.487 3.37142 464.626 9.37258 470.627C15.3737 476.629 23.5131 480 32 480Z" fill="#5DB2B2"/>
<path d="M100 416H140C149.548 416 158.705 412.207 165.456 405.456C172.207 398.705 176 389.548 176 380V228C176 218.452 172.207 209.295 165.456 202.544C158.705 195.793 149.548 192 140 192H100C90.4522 192 81.2955 195.793 74.5442 202.544C67.7928 209.295 64 218.452 64 228V380C64 389.548 67.7928 398.705 74.5442 405.456C81.2955 412.207 90.4522 416 100 416Z" fill="#5DB2B2"/>
<path d="M284 416H244C234.452 416 225.295 412.207 218.544 405.456C211.793 398.705 208 389.548 208 380V180C208 170.452 211.793 161.295 218.544 154.544C225.295 147.793 234.452 144 244 144H284C293.548 144 302.705 147.793 309.456 154.544C316.207 161.295 320 170.452 320 180V380C320 389.548 316.207 398.705 309.456 405.456C302.705 412.207 293.548 416 284 416Z" fill="#5DB2B2"/>
<path d="M387.64 416H427.64C437.188 416 446.345 412.207 453.096 405.456C459.847 398.705 463.64 389.548 463.64 380V116C463.64 106.452 459.847 97.2955 453.096 90.5442C446.345 83.7928 437.188 80 427.64 80H387.64C378.092 80 368.936 83.7928 362.184 90.5442C355.433 97.2955 351.64 106.452 351.64 116V380C351.64 389.548 355.433 398.705 362.184 405.456C368.936 412.207 378.092 416 387.64 416Z" fill="#5DB2B2"/>
</svg>
