<svg width="416" height="417" viewBox="0 0 416 417" fill="none" xmlns="http://www.w3.org/2000/svg">
<path d="M352 208.039C352 287.568 287.529 352.039 208 352.039C128.471 352.039 64 287.568 64 208.039C64 128.51 128.471 64.0391 208 64.0391C287.529 64.0391 352 128.51 352 208.039Z" fill="black"/>
<path fill-rule="evenodd" clip-rule="evenodd" d="M208 0.0390625C93.1634 0.0390625 0 93.2025 0 208.039C0 322.876 93.1634 416.039 208 416.039C322.837 416.039 416 322.876 416 208.039C416 93.2025 322.837 0.0390625 208 0.0390625ZM32 208.039C32 110.876 110.837 32.0391 208 32.0391C305.163 32.0391 384 110.876 384 208.039C384 305.203 305.163 384.039 208 384.039C110.837 384.039 32 305.203 32 208.039Z" fill="black"/>
</svg>
