<svg width="448" height="449" viewBox="0 0 448 449" fill="none" xmlns="http://www.w3.org/2000/svg">
<path d="M224 0.0390625C100.3 0.0390625 0 102.939 0 229.739C0 331.239 64.2 417.239 153.2 447.639C154.448 447.91 155.723 448.044 157 448.039C165.3 448.039 168.5 441.939 168.5 436.639C168.5 431.139 168.3 416.739 168.2 397.539C160.79 399.276 153.21 400.182 145.6 400.239C102.5 400.239 92.7 366.739 92.7 366.739C82.5 340.239 67.8 333.139 67.8 333.139C48.3 319.439 67.7 319.039 69.2 319.039H69.3C91.8 321.039 103.6 342.839 103.6 342.839C114.8 362.439 129.8 367.939 143.2 367.939C152.06 367.762 160.784 365.717 168.8 361.939C170.8 347.139 176.6 337.039 183 331.239C133.3 325.439 81 305.739 81 217.739C81 192.639 89.7 172.139 104 156.139C101.7 150.339 94 126.939 106.2 95.3391C107.836 94.9475 109.518 94.7793 111.2 94.8391C119.3 94.8391 137.6 97.9391 167.8 118.939C204.495 108.672 243.305 108.672 280 118.939C310.2 97.9391 328.5 94.8391 336.6 94.8391C338.282 94.7793 339.964 94.9475 341.6 95.3391C353.8 126.939 346.1 150.339 343.8 156.139C358.1 172.239 366.8 192.739 366.8 217.739C366.8 305.939 314.4 325.339 264.5 331.039C272.5 338.139 279.7 352.139 279.7 373.539C279.7 404.239 279.4 429.039 279.4 436.539C279.4 441.939 282.5 448.039 290.8 448.039C292.144 448.045 293.484 447.911 294.8 447.639C383.9 417.239 448 331.139 448 229.739C448 102.939 347.7 0.0390625 224 0.0390625Z" fill="#5DB3B3"/>
</svg>
