<svg width="416" height="417" viewBox="0 0 416 417" fill="none" xmlns="http://www.w3.org/2000/svg">
<path d="M160 128.039C168.837 128.039 176 135.202 176 144.039V272.039C176 280.876 168.837 288.039 160 288.039C151.163 288.039 144 280.876 144 272.039V144.039C144 135.202 151.163 128.039 160 128.039Z" fill="black"/>
<path d="M272 144.039C272 135.202 264.837 128.039 256 128.039C247.163 128.039 240 135.202 240 144.039V272.039C240 280.876 247.163 288.039 256 288.039C264.837 288.039 272 280.876 272 272.039V144.039Z" fill="black"/>
<path fill-rule="evenodd" clip-rule="evenodd" d="M0 208.039C0 93.2025 93.1634 0.0390625 208 0.0390625C322.837 0.0390625 416 93.2025 416 208.039C416 322.876 322.837 416.039 208 416.039C93.1634 416.039 0 322.876 0 208.039ZM208 32.0391C110.837 32.0391 32 110.876 32 208.039C32 305.203 110.837 384.039 208 384.039C305.163 384.039 384 305.203 384 208.039C384 110.876 305.163 32.0391 208 32.0391Z" fill="black"/>
</svg>
