<svg width="416" height="416" viewBox="0 0 416 416" fill="none" xmlns="http://www.w3.org/2000/svg">
<path d="M56 112C44.9243 112 34.0972 108.716 24.8881 102.562C15.6789 96.409 8.50128 87.663 4.26277 77.4303C0.0242639 67.1976 -1.08472 55.9379 1.07605 45.075C3.23682 34.212 8.57031 24.2338 16.4021 16.4021C24.2338 8.57031 34.212 3.23682 45.075 1.07605C55.9379 -1.08472 67.1976 0.0242639 77.4303 4.26277C87.663 8.50128 96.409 15.6789 102.562 24.8881C108.716 34.0972 112 44.9243 112 56C111.984 70.8473 106.079 85.0819 95.5805 95.5805C85.0819 106.079 70.8473 111.984 56 112Z" fill="#5DB2B2"/>
<path d="M208 112C196.924 112 186.097 108.716 176.888 102.562C167.679 96.409 160.501 87.663 156.263 77.4303C152.024 67.1976 150.915 55.9379 153.076 45.075C155.237 34.212 160.57 24.2338 168.402 16.4021C176.234 8.57031 186.212 3.23682 197.075 1.07605C207.938 -1.08472 219.198 0.0242639 229.43 4.26277C239.663 8.50128 248.409 15.6789 254.562 24.8881C260.716 34.0972 264 44.9243 264 56C263.984 70.8473 258.079 85.0819 247.58 95.5805C237.082 106.079 222.847 111.984 208 112Z" fill="#5DB2B2"/>
<path d="M328.888 102.562C338.097 108.716 348.924 112 360 112C374.847 111.984 389.082 106.079 399.58 95.5805C410.079 85.0819 415.984 70.8473 416 56C416 44.9243 412.716 34.0972 406.562 24.8881C400.409 15.6789 391.663 8.50128 381.43 4.26277C371.198 0.0242639 359.938 -1.08472 349.075 1.07605C338.212 3.23682 328.234 8.57031 320.402 16.4021C312.57 24.2338 307.237 34.212 305.076 45.075C302.915 55.9379 304.024 67.1976 308.263 77.4303C312.501 87.663 319.679 96.409 328.888 102.562Z" fill="#5DB2B2"/>
<path d="M56 264C44.9243 264 34.0972 260.716 24.8881 254.562C15.6789 248.409 8.50128 239.663 4.26277 229.43C0.0242639 219.198 -1.08472 207.938 1.07605 197.075C3.23682 186.212 8.57031 176.234 16.4021 168.402C24.2338 160.57 34.212 155.237 45.075 153.076C55.9379 150.915 67.1976 152.024 77.4303 156.263C87.663 160.501 96.409 167.679 102.562 176.888C108.716 186.097 112 196.924 112 208C111.984 222.847 106.079 237.082 95.5805 247.58C85.0819 258.079 70.8473 263.984 56 264Z" fill="#5DB2B2"/>
<path d="M176.888 254.562C186.097 260.716 196.924 264 208 264C222.847 263.984 237.082 258.079 247.58 247.58C258.079 237.082 263.984 222.847 264 208C264 196.924 260.716 186.097 254.562 176.888C248.409 167.679 239.663 160.501 229.43 156.263C219.198 152.024 207.938 150.915 197.075 153.076C186.212 155.237 176.234 160.57 168.402 168.402C160.57 176.234 155.237 186.212 153.076 197.075C150.915 207.938 152.024 219.198 156.263 229.43C160.501 239.663 167.679 248.409 176.888 254.562Z" fill="#5DB2B2"/>
<path d="M360 264C348.924 264 338.097 260.716 328.888 254.562C319.679 248.409 312.501 239.663 308.263 229.43C304.024 219.198 302.915 207.938 305.076 197.075C307.237 186.212 312.57 176.234 320.402 168.402C328.234 160.57 338.212 155.237 349.075 153.076C359.938 150.915 371.198 152.024 381.43 156.263C391.663 160.501 400.409 167.679 406.562 176.888C412.716 186.097 416 196.924 416 208C415.984 222.847 410.079 237.082 399.58 247.58C389.082 258.079 374.847 263.984 360 264Z" fill="#5DB2B2"/>
<path d="M24.8881 406.562C34.0972 412.716 44.9243 416 56 416C70.8473 415.984 85.0819 410.079 95.5805 399.58C106.079 389.082 111.984 374.847 112 360C112 348.924 108.716 338.097 102.562 328.888C96.409 319.679 87.663 312.501 77.4303 308.263C67.1976 304.024 55.9379 302.915 45.075 305.076C34.212 307.237 24.2338 312.57 16.4021 320.402C8.57031 328.234 3.23682 338.212 1.07605 349.075C-1.08472 359.938 0.0242639 371.198 4.26277 381.43C8.50128 391.663 15.6789 400.409 24.8881 406.562Z" fill="#5DB2B2"/>
<path d="M208 416C196.924 416 186.097 412.716 176.888 406.562C167.679 400.409 160.501 391.663 156.263 381.43C152.024 371.198 150.915 359.938 153.076 349.075C155.237 338.212 160.57 328.234 168.402 320.402C176.234 312.57 186.212 307.237 197.075 305.076C207.938 302.915 219.198 304.024 229.43 308.263C239.663 312.501 248.409 319.679 254.562 328.888C260.716 338.097 264 348.924 264 360C263.984 374.847 258.079 389.082 247.58 399.58C237.082 410.079 222.847 415.984 208 416Z" fill="#5DB2B2"/>
<path d="M328.888 406.562C338.097 412.716 348.924 416 360 416C374.847 415.984 389.082 410.079 399.58 399.58C410.079 389.082 415.984 374.847 416 360C416 348.924 412.716 338.097 406.562 328.888C400.409 319.679 391.663 312.501 381.43 308.263C371.198 304.024 359.938 302.915 349.075 305.076C338.212 307.237 328.234 312.57 320.402 320.402C312.57 328.234 307.237 338.212 305.076 349.075C302.915 359.938 304.024 371.198 308.263 381.43C312.501 391.663 319.679 400.409 328.888 406.562Z" fill="#5DB2B2"/>
</svg>
