<svg width="512" height="385" viewBox="0 0 512 385" fill="none" xmlns="http://www.w3.org/2000/svg">
<path fill-rule="evenodd" clip-rule="evenodd" d="M0 64.0391C0 28.6928 28.6538 0.0390625 64 0.0390625H448C483.346 0.0390625 512 28.6928 512 64.0391V320.039C512 355.385 483.346 384.039 448 384.039H64C28.6538 384.039 0 355.385 0 320.039V64.0391ZM64 32.0391C46.3269 32.0391 32 46.3659 32 64.0391V320.039C32 337.712 46.3269 352.039 64 352.039H448C465.673 352.039 480 337.712 480 320.039V64.0391C480 46.3659 465.673 32.0391 448 32.0391H64Z" fill="black"/>
</svg>
